<svg xmlns="http://www.w3.org/2000/svg" xmlns:xlink="http://www.w3.org/1999/xlink" width="1080" zoomAndPan="magnify" viewBox="0 0 810 1012.49997" height="1350" preserveAspectRatio="xMidYMid meet" version="1.0"><defs><clipPath id="43b8f5786a"><path d="M 489 350 L 659.199219 350 L 659.199219 825 L 489 825 Z M 489 350 " clip-rule="nonzero"/></clipPath><clipPath id="ac7dd6640b"><path d="M 214 55.355469 L 520 55.355469 L 520 358 L 214 358 Z M 214 55.355469 " clip-rule="nonzero"/></clipPath><clipPath id="19ff02f715"><path d="M 150.949219 124 L 174 124 L 174 147 L 150.949219 147 Z M 150.949219 124 " clip-rule="nonzero"/></clipPath><clipPath id="fbcbe1b82e"><path d="M 271 813 L 624 813 L 624 956.410156 L 271 956.410156 Z M 271 813 " clip-rule="nonzero"/></clipPath></defs><g clip-path="url(#43b8f5786a)"><path fill="#010813" d="M 618.707031 824.335938 C 617.96875 823.144531 618.691406 821.8125 619.21875 820.683594 C 621.292969 815.5625 623.289062 810.417969 625.421875 805.320312 C 630.324219 793.527344 634.964844 781.621094 639.519531 769.6875 C 643.449219 758.992188 645.660156 747.785156 648.332031 736.726562 C 650.644531 725.789062 653.453125 714.847656 654.011719 703.644531 C 654.039062 693.117188 653.882812 682.578125 653.316406 672.0625 C 652.742188 662.855469 650.898438 653.777344 650.089844 644.59375 C 649.929688 639.863281 650.878906 635.003906 650.675781 630.359375 C 650.375 620.828125 649.246094 610.878906 645.011719 602.242188 C 644.867188 602.332031 644.746094 602.449219 644.625 602.5625 C 644.625 602.5625 644.292969 602.949219 644.292969 602.949219 C 643.222656 604.5625 642.128906 606.207031 640.414062 607.203125 C 635.085938 610.269531 626.96875 608.136719 626.359375 601.296875 C 625.757812 596.445312 627.222656 591.6875 628.378906 587.027344 C 629.367188 583.082031 629.5625 578.953125 629.035156 574.917969 C 628.699219 572.765625 626.234375 573.589844 624.835938 572.675781 C 623.824219 572.136719 622.9375 571.464844 622.066406 570.722656 C 619.015625 567.921875 616.414062 564.636719 613.929688 561.328125 C 612.183594 558.921875 610.054688 556.222656 610.652344 553.054688 C 610.972656 550.378906 612.789062 548.28125 614.605469 546.4375 C 616.050781 544.59375 619.945312 542.246094 617.808594 539.695312 C 616.058594 537.539062 613.453125 536.355469 611.164062 534.875 C 607.167969 532.300781 603.679688 529.035156 600.015625 526.027344 C 597.496094 523.851562 594.714844 521.957031 592.375 519.585938 C 588.21875 515.074219 586.023438 509.214844 583.957031 503.539062 C 582.234375 498.53125 580.113281 493.6875 577.902344 488.875 C 575.929688 484.96875 574.382812 480.546875 571 477.617188 C 558.636719 469.324219 553.429688 467.921875 545.796875 453.792969 C 543.691406 449.5625 541.96875 444.476562 543.542969 439.8125 C 544.710938 436.507812 547.589844 434.003906 549.644531 431.386719 C 551.359375 429.519531 550.996094 426.976562 550.761719 424.664062 C 550 419.878906 549.285156 415.007812 547.632812 410.433594 C 544.789062 404.101562 542.675781 397.472656 540.570312 390.863281 C 537.894531 383.289062 537.148438 375.179688 534.457031 367.617188 C 530.285156 357.15625 527.207031 370.152344 526.816406 374.761719 C 526.628906 376.550781 525.5625 378.070312 524.085938 379.039062 C 520.175781 381.214844 515.4375 379.660156 511.21875 379.554688 C 502.488281 379.136719 484.222656 376.601562 491.050781 363.890625 C 492.980469 360.765625 495.925781 358.480469 498.449219 355.867188 C 500.488281 353.984375 502.222656 351.546875 504.832031 350.453125 C 508.699219 348.984375 512.171875 352.417969 513.75 355.65625 C 513.804688 355.605469 513.851562 355.5625 513.863281 355.617188 C 514.640625 354.707031 514.625 353.917969 515.339844 353.0625 C 515.933594 352.304688 516.882812 351.359375 517.933594 351.671875 C 519.800781 352.496094 520.113281 355.136719 519.238281 356.800781 C 517.976562 359.753906 514.246094 362.519531 511.140625 360.4375 C 509.242188 359.199219 508.996094 356.394531 506.863281 355.433594 C 504.777344 357 503.222656 359.214844 501.347656 361.035156 C 499.292969 363.375 496.359375 365.308594 495.480469 368.429688 C 495.28125 373.761719 515.324219 374.179688 519.488281 374.8125 C 520.5 374.757812 521.144531 374.9375 521.703125 374.285156 C 522.710938 368.785156 523.324219 361.722656 529.003906 358.976562 C 540.113281 355.234375 541.679688 375.628906 543.988281 382.675781 C 546.296875 390.507812 548.816406 398.300781 551.773438 405.917969 C 554.046875 410.707031 554.871094 415.992188 555.773438 421.171875 C 556.195312 424.023438 556.648438 426.945312 556.25 429.820312 C 555.507812 435.03125 549.707031 437.78125 548.519531 442.679688 C 548.042969 449.851562 556.015625 460.738281 561.644531 464.898438 C 570.054688 471.03125 576.761719 472.289062 581.179688 482.804688 C 583.121094 486.792969 584.976562 490.832031 586.65625 494.933594 C 589.011719 500.585938 590.597656 506.558594 593.609375 511.921875 C 596.027344 516.527344 600.589844 519.261719 604.371094 522.625 C 608.378906 526.101562 612.277344 529.714844 616.835938 532.488281 C 620.65625 534.917969 625.042969 539.316406 622.792969 544.171875 C 621.460938 547.035156 618.890625 549.070312 616.929688 551.488281 C 615.949219 552.625 615.253906 554.339844 616.226562 555.644531 C 618.96875 559.910156 622.222656 564.226562 625.921875 567.671875 C 627.097656 568.945312 628.910156 568.554688 630.300781 569.402344 C 634.984375 571.96875 633.988281 578.1875 633.964844 582.707031 C 633.605469 588.101562 631.351562 593.1875 631.1875 598.609375 C 631.199219 599.832031 631.1875 601.328125 631.820312 602.382812 C 632.539062 603.628906 634.484375 603.726562 635.6875 603.695312 C 639.152344 603.652344 639.546875 599.804688 642.039062 598.222656 C 647.664062 594.53125 650.265625 600.886719 651.761719 605.316406 C 655.921875 617.242188 656.609375 630.066406 655.476562 642.5625 C 656.109375 653.757812 658.503906 664.804688 658.683594 676.042969 C 658.835938 680.878906 658.859375 685.71875 658.929688 690.5625 C 659.359375 700.878906 658.851562 711.191406 656.539062 721.269531 C 653.5 736.234375 650.042969 751.152344 645.589844 765.757812 C 642.871094 773.652344 639.46875 781.289062 636.382812 789.042969 C 633 797.324219 629.464844 805.53125 626.03125 813.527344 C 624.792969 816.449219 623.625 819.300781 622.359375 822.160156 C 621.90625 823.132812 621.511719 824.1875 620.515625 824.703125 C 619.929688 824.964844 619.046875 825 618.707031 824.355469 Z M 618.707031 824.335938 " fill-opacity="1" fill-rule="nonzero"/></g><g clip-path="url(#ac7dd6640b)"><path fill="#010813" d="M 516.011719 357.769531 C 514.734375 357.492188 514.617188 356.273438 514.800781 355.203125 C 513.363281 341.945312 505.144531 330.742188 498.589844 319.53125 C 492.980469 309.160156 485.285156 300.242188 477.746094 291.257812 C 473.90625 286.59375 470.308594 281.710938 466.121094 277.347656 C 462.609375 274.046875 458.398438 270.867188 454.714844 268.058594 C 453.703125 268.460938 453.023438 269.339844 452.128906 269.925781 C 449.792969 271.457031 446.628906 271.757812 443.972656 270.984375 C 440.339844 269.792969 437.078125 266.582031 436.835938 262.617188 C 436.65625 258.421875 438.191406 254.402344 438.71875 250.273438 C 439.355469 246.164062 439.03125 241.976562 437.277344 238.164062 C 433.359375 229.695312 428.402344 221.777344 424.039062 213.542969 C 421.566406 208.894531 419.273438 204.152344 416.667969 199.578125 C 414.234375 195.386719 411.195312 191.601562 408.445312 187.625 C 405.585938 183.492188 402.972656 179.1875 400.0625 175.097656 C 395.375 169.167969 389.390625 164.457031 384.007812 159.195312 C 380.253906 155.597656 376.5 152.007812 372.4375 148.753906 C 366.316406 144.117188 359.664062 140.207031 353.847656 135.171875 C 346.792969 129.375 341.597656 121.769531 335.308594 115.21875 C 330.835938 110.945312 325.761719 107.375 321.292969 103.09375 C 313.210938 95.609375 306.269531 86.96875 300.160156 77.824219 C 297.695312 74.070312 295.175781 70.34375 292.410156 66.800781 C 290.867188 65 289.613281 62.59375 287.203125 61.882812 C 282.96875 60.894531 278.636719 62.648438 274.675781 64.035156 C 271.878906 65.125 270.820312 66.085938 273.367188 68.511719 C 274.210938 69.300781 275.253906 70.195312 276.21875 70.753906 C 278.214844 71.867188 280.550781 72.066406 282.707031 72.75 C 287.332031 73.984375 291.078125 77.074219 294.734375 80.023438 C 301.925781 85.992188 307.890625 93.230469 313.90625 100.339844 C 316.960938 104.023438 320.382812 107.445312 323.191406 111.320312 C 325.195312 114.289062 322.96875 117.609375 319.460938 116.960938 C 316.21875 116.429688 313.289062 114.765625 310.597656 112.957031 C 302.863281 107.5 296.253906 100.617188 289.714844 93.820312 C 286.371094 90.421875 283.671875 86.378906 279.90625 83.414062 C 273.183594 77.984375 270.445312 85.734375 259.503906 77.382812 C 255.277344 74.570312 252.039062 70.3125 247.414062 68.125 C 240.457031 65.367188 232.128906 66.535156 225.730469 70.242188 C 219.484375 73.917969 218.238281 82.058594 222.027344 88 C 225.210938 92.753906 229.964844 96.039062 234.773438 98.949219 C 245.078125 104.347656 254.285156 112.90625 266.175781 114.472656 C 267.757812 114.671875 269.335938 114.828125 270.933594 114.871094 C 271.65625 114.796875 272.632812 115.054688 273.183594 114.464844 C 274.019531 111.800781 272.066406 109.230469 270.945312 106.921875 C 269.980469 105.101562 268.492188 103.28125 268.832031 101.101562 C 270.6875 93.765625 279.574219 98.613281 283.382812 101.613281 C 292.753906 108.875 300.972656 117.519531 310.464844 124.667969 C 314.574219 128.503906 320.449219 127.398438 325.589844 127.824219 C 332 128.136719 338.34375 129.597656 344.414062 131.644531 C 350.746094 133.730469 355.757812 138.316406 360.285156 143.050781 C 362.90625 145.988281 366.136719 148.523438 368.3125 151.800781 C 368.957031 153.074219 368.460938 154.839844 367.285156 155.628906 C 365.902344 156.554688 364.261719 156.320312 362.707031 156.097656 C 351.636719 153.433594 341.558594 147.613281 330.558594 144.628906 C 324.992188 142.957031 318.777344 141.796875 313.234375 141.816406 C 308.832031 141.703125 304.382812 142.523438 300.027344 141.640625 C 292.011719 139.691406 285.433594 134.363281 278.417969 130.289062 C 270.535156 125.832031 262.15625 121.863281 252.972656 121.359375 C 259.335938 125.257812 265.515625 129.5 271.277344 134.25 C 281.324219 142.105469 273.910156 148.878906 264.679688 151.835938 C 262.183594 152.777344 259.625 153.519531 257.136719 154.464844 C 255.664062 154.910156 256.558594 156.851562 256.671875 157.949219 C 258.359375 163.894531 260.640625 169.714844 261.378906 175.894531 C 262.113281 182.164062 262.050781 188.492188 262.203125 194.800781 C 262.148438 197.054688 262.722656 199.683594 260.949219 201.441406 C 260.039062 202.496094 258.527344 202.605469 257.636719 201.4375 C 255.894531 199.582031 256.539062 196.929688 256.410156 194.625 C 256.207031 187.710938 256.515625 180.707031 255.21875 173.878906 C 254.242188 168.847656 252.273438 164.082031 250.984375 159.140625 C 249.207031 152.097656 252.308594 149.308594 258.847656 147.722656 C 261.285156 146.949219 263.703125 146.148438 266.078125 145.195312 C 267.734375 144.347656 269.835938 143.601562 270.679688 141.828125 C 270.777344 140.96875 269.953125 140.347656 269.457031 139.738281 C 267.914062 138.242188 266.246094 136.898438 264.554688 135.585938 C 259.640625 131.863281 254.550781 128.367188 249.234375 125.234375 C 247.03125 123.847656 244.488281 122.746094 242.777344 120.730469 C 241.183594 118.828125 242.472656 115.882812 244.898438 115.566406 C 247.253906 115.199219 249.667969 115.429688 252.042969 115.527344 C 245.746094 112.242188 239.96875 108.097656 233.839844 104.523438 C 227.765625 100.949219 221.667969 96.804688 217.761719 90.808594 C 207.5625 73.082031 222.757812 60.246094 240.378906 60.824219 C 250.695312 60.722656 255.460938 66.757812 262.703125 72.707031 C 266.757812 75.992188 269.609375 76.609375 274.695312 75.726562 C 263.605469 69.910156 263.402344 60.433594 276.683594 57.207031 C 282.328125 55.460938 289.46875 54.71875 293.910156 59.425781 C 300.269531 66.277344 304.773438 74.570312 310.445312 81.957031 C 316.355469 89.734375 323.074219 96.898438 330.644531 103.089844 C 333.734375 105.65625 336.988281 108.042969 339.542969 110.609375 C 345.636719 116.707031 350.535156 123.921875 357.085938 129.578125 C 363.109375 134.972656 369.835938 138.808594 376.21875 143.648438 C 381.242188 147.476562 385.683594 152.03125 390.246094 156.375 C 394.933594 160.847656 399.898438 165.046875 404.070312 170.023438 C 407.96875 175.019531 410.992188 180.652344 414.722656 185.773438 C 416.535156 188.304688 418.457031 190.777344 420.121094 193.414062 C 425.183594 201.585938 429.0625 210.425781 433.882812 218.734375 C 438.101562 227.238281 444.394531 235.402344 445.019531 245.148438 C 445.371094 250.714844 443.574219 256.066406 442.984375 261.539062 C 442.777344 264.332031 446.558594 266.371094 448.851562 264.871094 C 453.078125 260.453125 457.015625 261.117188 461.355469 264.894531 C 463.886719 266.792969 466.398438 268.726562 468.804688 270.773438 C 473.503906 274.871094 477.179688 279.96875 481.109375 284.777344 C 487.128906 292.28125 493.746094 299.34375 499.066406 307.382812 C 502.609375 312.894531 505.753906 318.664062 509.085938 324.308594 C 512.304688 329.707031 515.191406 335.316406 517.027344 341.34375 C 518.433594 345.550781 521.988281 357.605469 516 357.769531 Z M 312.417969 135.816406 C 328.757812 135.605469 343.527344 143.496094 358.429688 149.148438 C 354.445312 145.257812 350.621094 141.003906 345.605469 138.417969 C 339.207031 135.5625 332.15625 134.152344 325.191406 133.617188 C 317.707031 133.242188 311.835938 133.8125 305.957031 128.242188 C 302.324219 125.28125 298.703125 122.300781 295.15625 119.230469 C 288.875 113.929688 283.292969 107.511719 275.886719 103.722656 C 277.253906 106.234375 278.652344 108.847656 279.03125 111.722656 C 279.707031 116.054688 277.105469 120.480469 272.398438 120.417969 C 275.386719 121.78125 278.296875 123.273438 281.160156 124.890625 C 287.535156 128.46875 293.339844 133.285156 300.382812 135.53125 C 304.300781 136.59375 308.402344 135.640625 312.402344 135.816406 Z M 312.410156 107.203125 C 306.789062 100.894531 301.574219 94.226562 295.542969 88.289062 C 291.488281 84.621094 287.53125 80.496094 282.484375 78.207031 C 286.757812 81.125 289.757812 85.425781 293.234375 89.175781 C 299.398438 95.761719 305.347656 101.75 312.402344 107.203125 Z M 312.410156 107.203125 " fill-opacity="1" fill-rule="nonzero"/></g><path fill="#010813" d="M 228.609375 116.449219 C 224.035156 114.921875 219.179688 113.695312 214.332031 113.800781 C 213.550781 113.84375 212.894531 114.25 212.183594 114.519531 C 210.640625 115.042969 208.929688 114.84375 207.484375 114.121094 C 204.378906 112.496094 202.503906 109.34375 200.222656 106.8125 C 199.3125 105.8125 198.257812 104.988281 197.429688 103.914062 C 194.308594 99.441406 196.203125 93.6875 196.425781 88.667969 C 196.828125 85.398438 196.660156 81.855469 198.269531 78.882812 C 200.4375 75.003906 206.035156 74.117188 208.355469 78.347656 C 210.289062 81.980469 210.066406 86.398438 209.855469 90.398438 C 209.839844 91.5625 209.242188 92.753906 209.441406 93.886719 C 210.261719 95.371094 211.839844 96.003906 213.394531 96.410156 C 215.429688 96.886719 217.339844 97.820312 218.769531 99.371094 C 219.972656 100.535156 220.800781 102.011719 221.894531 103.261719 C 223.332031 104.554688 224.898438 105.710938 226.167969 107.175781 C 227.285156 108.347656 228.398438 109.511719 229.632812 110.5625 C 230.761719 111.40625 231.765625 113.050781 231.109375 114.453125 C 231.671875 116.054688 229.957031 116.910156 228.597656 116.441406 Z M 216.683594 108.898438 C 218.378906 109.125 220.035156 109.511719 221.691406 109.929688 C 220.632812 108.824219 219.324219 108.03125 218.226562 106.976562 C 216.796875 105.558594 215.929688 103.671875 214.351562 102.394531 C 212.941406 101.367188 211.078125 101.300781 209.542969 100.503906 C 206.734375 99.207031 204.199219 96.25 204.691406 92.996094 C 205.519531 90.175781 205.578125 86.757812 205.167969 84.003906 C 204.953125 82.816406 204.820312 81.445312 203.9375 80.546875 C 201.699219 81.414062 202.253906 87.636719 201.769531 89.851562 C 201.535156 92.363281 201.199219 94.863281 201.09375 97.386719 C 201.09375 98.585938 201.113281 99.9375 201.945312 100.890625 C 203.226562 102.136719 204.535156 103.359375 205.609375 104.800781 C 207.113281 106.402344 208.234375 109.386719 210.488281 109.910156 C 212.371094 108.898438 214.5625 108.589844 216.679688 108.886719 Z M 216.683594 108.898438 " fill-opacity="1" fill-rule="nonzero"/><path fill="#010813" d="M 196.835938 128.9375 C 193.785156 127.621094 185.542969 123.746094 185.3125 120.226562 C 185.289062 115.820312 189.90625 110.324219 194.136719 114.355469 C 195.027344 115.09375 195.992188 114.0625 196.984375 113.996094 C 203.992188 112.765625 202.988281 121.46875 201.757812 125.824219 C 202.445312 128.679688 199.101562 130.023438 196.835938 128.933594 Z M 198.480469 125.226562 C 198.707031 122.792969 198.949219 120.496094 198.261719 118.269531 C 197.589844 118.183594 196.945312 118.40625 196.316406 118.636719 C 194.371094 119.359375 192.375 118.328125 190.875 117.121094 C 190.019531 117.75 189.496094 118.804688 189.152344 119.785156 C 192.003906 122.113281 195.105469 123.921875 198.480469 125.234375 Z M 198.480469 125.226562 " fill-opacity="1" fill-rule="nonzero"/><g clip-path="url(#19ff02f715)"><path fill="#010813" d="M 167.828125 146.433594 C 161.988281 144.292969 154.414062 142.945312 152.359375 136.152344 C 150.539062 132.507812 149.574219 125.246094 155.238281 124.878906 C 156.859375 124.8125 158.214844 125.792969 159.527344 126.613281 C 162.359375 128.246094 164.878906 130.335938 167.597656 132.144531 C 173.238281 134.621094 175.207031 139.527344 171.507812 144.75 C 171.351562 146.425781 169.171875 146.894531 167.820312 146.425781 Z M 165.710938 141.292969 C 166.554688 141.582031 167.394531 141.875 168.238281 142.179688 C 168.59375 142.304688 168.949219 142.417969 169.296875 142.5625 C 170.621094 138.960938 169.175781 137.695312 165.976562 136.351562 C 162.300781 134.378906 159.070312 131.71875 155.417969 129.6875 C 155.003906 132.34375 156.292969 135.042969 157.589844 137.296875 C 159.699219 139.527344 162.953125 140.183594 165.71875 141.292969 Z M 165.710938 141.292969 " fill-opacity="1" fill-rule="nonzero"/></g><path fill="#010813" d="M 177.179688 119.347656 C 173.652344 116.238281 177.5625 108.367188 182 112.230469 C 183.964844 113.628906 183.6875 120.191406 180.410156 118.917969 C 179.976562 120.195312 178.070312 120.117188 177.179688 119.347656 Z M 179.847656 117.429688 C 179.902344 116.628906 180.101562 115.628906 179.621094 114.929688 C 178.96875 115.726562 179.183594 116.726562 179.847656 117.429688 Z M 179.847656 117.429688 " fill-opacity="1" fill-rule="nonzero"/><path fill="#010813" d="M 179.289062 106.082031 C 179.015625 105.957031 178.714844 105.703125 178.714844 105.378906 C 178.714844 105.335938 178.714844 105.292969 178.714844 105.257812 C 174.484375 102.847656 176.683594 95.832031 180.765625 94.617188 C 184.210938 94 185.832031 98.164062 185.199219 100.996094 C 184.835938 102.859375 183.535156 104.421875 181.992188 105.449219 C 181.980469 106.070312 181.320312 106.078125 180.84375 106.058594 C 180.367188 106.300781 179.757812 106.335938 179.28125 106.089844 Z M 180.605469 103 C 181.957031 101.789062 182.324219 99.640625 181.28125 98.128906 C 179.921875 99.269531 178.367188 101.933594 180.605469 103 Z M 180.605469 103 " fill-opacity="1" fill-rule="nonzero"/><path fill="#010813" d="M 207.199219 255.964844 C 199.015625 255.664062 191.863281 251.011719 184.433594 248.0625 C 177.660156 244.832031 169.421875 242.550781 164.984375 236.101562 C 163.390625 232.992188 165.777344 230.671875 168.730469 229.972656 C 180.070312 226.039062 191.839844 223.742188 201.636719 232.378906 C 205.945312 236.074219 216.480469 241.753906 214.429688 248.371094 C 215.203125 248.761719 215.335938 249.804688 215.296875 250.59375 C 214.816406 254.238281 210.496094 256.03125 207.199219 255.964844 Z M 208.050781 250.777344 C 208.644531 250.683594 209.21875 250.457031 209.75 250.171875 C 210.089844 249.050781 210.59375 247.878906 210.5625 246.695312 C 210.5625 246.738281 210.574219 246.78125 210.574219 246.816406 C 210.574219 246.863281 210.574219 246.914062 210.574219 246.960938 C 210.363281 243.386719 197.273438 236.1875 193.917969 233.621094 C 186.417969 229.980469 177.679688 233.058594 170.0625 234.8125 C 175.804688 239.828125 183.441406 241.839844 190.222656 245.042969 C 195.972656 247.347656 201.671875 250.925781 208.050781 250.769531 Z M 208.050781 250.777344 " fill-opacity="1" fill-rule="nonzero"/><path fill="#010813" d="M 213.003906 353.3125 C 212.472656 352.628906 212.796875 351.757812 213.140625 351.070312 C 213.605469 349.972656 214.03125 348.859375 214.453125 347.75 C 216.746094 341.746094 217.9375 335.40625 218.890625 329.074219 C 221.050781 317.058594 218.902344 304.917969 218.234375 292.859375 C 217.738281 287.625 216.71875 282.519531 215.027344 277.652344 C 213.394531 273.078125 210.117188 267.375 214.453125 263.285156 C 223.042969 254.523438 235.648438 250.046875 242.445312 239.542969 C 248.691406 231.089844 251.621094 220.851562 253.808594 210.710938 C 254.796875 206.136719 256.195312 201.53125 256.351562 196.964844 C 256.386719 194.378906 256.195312 191.800781 256.21875 189.214844 C 256.117188 187.535156 256.527344 185.046875 258.515625 184.792969 C 260.390625 185.140625 261.15625 187.136719 261.339844 188.828125 C 261.816406 191.511719 262.105469 194.253906 262.179688 196.984375 C 262.292969 201.308594 261.171875 205.527344 260.207031 209.710938 C 258.308594 218.242188 256.347656 226.882812 252.308594 234.710938 C 248.433594 242.054688 243.578125 249.183594 236.738281 254.054688 C 230.863281 258.410156 225.15625 261.707031 219.855469 266.464844 C 219.316406 267.0625 218.539062 267.59375 218.339844 268.402344 C 218.78125 270.414062 219.601562 272.328125 220.28125 274.269531 C 224.210938 284.550781 224.292969 295.644531 224.78125 306.488281 C 225.609375 315.378906 224.664062 324.234375 222.582031 332.902344 C 221.316406 338.910156 219.402344 344.789062 216.574219 350.25 C 215.757812 351.582031 214.828125 354.539062 213.019531 353.3125 Z M 213.003906 353.3125 " fill-opacity="1" fill-rule="nonzero"/><path fill="#010813" d="M 172.730469 499.886719 C 172.53125 499.53125 172.328125 499.183594 172.128906 498.820312 C 171.671875 498.019531 171.25 497.226562 170.648438 496.519531 C 170.308594 496.175781 169.972656 495.832031 169.632812 495.488281 C 168.777344 494.621094 167.683594 494.050781 166.507812 493.761719 C 165.179688 488.464844 164.199219 483.078125 163.421875 477.660156 C 162.835938 473.976562 162.347656 470.277344 162.457031 466.535156 C 163.367188 456.597656 161.753906 446.703125 162.136719 436.773438 C 162.332031 431.382812 164.101562 426.046875 167.632812 421.921875 C 169.34375 419.527344 172.515625 415.496094 175.484375 418.523438 C 177.28125 420.761719 176.945312 423.945312 177.335938 426.640625 C 177.9375 437.902344 177.601562 449.234375 176.414062 460.445312 C 175.636719 467.53125 173.859375 475.40625 177.613281 481.945312 C 181.601562 488.386719 191.375 486.300781 191.039062 478.273438 C 190.652344 473.921875 188.730469 469.808594 188.894531 465.371094 C 188.972656 461.457031 189.789062 457.585938 190.285156 453.707031 C 191.910156 441.835938 192.5625 429.921875 193.90625 418.035156 C 194.703125 410.832031 195.808594 403.679688 196.480469 396.46875 C 197.234375 388.707031 197.761719 380.9375 198.511719 373.175781 C 199.082031 366.828125 199.882812 359.421875 206.773438 356.925781 C 209.632812 355.238281 213.304688 353.78125 214.640625 350.53125 C 214.816406 350.019531 215.492188 349.875 215.917969 350.160156 C 218.160156 351.917969 214.828125 355.570312 213.496094 357.035156 C 211.929688 358.554688 210.199219 359.910156 208.367188 361.089844 C 206.652344 362.003906 205.210938 363.253906 204.625 365.175781 C 203.777344 367.664062 203.554688 370.375 203.242188 372.914062 C 202.304688 382.367188 201.703125 391.851562 200.667969 401.292969 C 198.117188 419.25 197.113281 437.371094 194.707031 455.347656 C 194.207031 458.96875 193.363281 462.578125 193.359375 466.246094 C 193.492188 469.242188 194.007812 471.601562 194.628906 474.398438 C 196.851562 482.773438 191.230469 491.257812 182.082031 489.832031 C 169.085938 487.003906 170.320312 470.597656 171.894531 460.367188 C 173.039062 448.242188 173.507812 435.804688 172.371094 423.800781 C 164.242188 432.832031 167.628906 445.570312 167.53125 456.570312 C 167.574219 460.722656 167.144531 464.859375 167.199219 469.007812 C 167.664062 476.605469 168.949219 484.167969 170.503906 491.613281 C 171.171875 494.488281 171.992188 497.320312 172.871094 500.136719 C 172.820312 500.050781 172.773438 499.960938 172.726562 499.875 Z M 172.730469 499.886719 " fill-opacity="1" fill-rule="nonzero"/><g clip-path="url(#fbcbe1b82e)"><path fill="#010813" d="M 366.171875 956 C 353.414062 955.265625 340.738281 953 328.304688 950.105469 C 320.292969 947.992188 312.730469 944.539062 304.828125 942.074219 C 293.71875 938.761719 282.117188 936.496094 271.433594 932.070312 C 271.097656 931.734375 270.996094 931.1875 271.285156 930.789062 C 272.507812 929.425781 274.984375 930.714844 276.527344 930.902344 C 285.515625 933.398438 294.644531 935.363281 303.714844 937.542969 C 310.625 939.207031 317.21875 941.914062 323.996094 944.027344 C 331.65625 946.503906 339.640625 947.617188 347.558594 948.949219 C 352.453125 949.8125 357.367188 950.433594 362.316406 950.855469 C 377.519531 952.1875 381.0625 949.101562 392.464844 940.171875 C 407.035156 928.371094 425.453125 923.605469 443.105469 918.441406 C 455.070312 915.355469 466.839844 911.601562 478.546875 907.660156 C 486.363281 905.070312 494.335938 902.878906 501.921875 899.636719 C 514.449219 893.710938 527.722656 889.445312 540 882.992188 C 550.21875 876.886719 560.710938 871.230469 570.785156 864.894531 C 575.78125 861.5625 580.257812 857.539062 584.84375 853.683594 C 600.578125 840.628906 610 834.171875 619.429688 815.136719 C 620.433594 813.953125 622.835938 813.117188 623.445312 815.105469 C 624.402344 817.496094 622.632812 819.734375 621.714844 821.855469 C 620.304688 824.714844 618.703125 827.457031 616.941406 830.117188 C 613.042969 835.996094 608.152344 841.125 602.824219 845.714844 C 594.328125 852.855469 585.878906 860.085938 577.207031 867.011719 C 571.363281 871.386719 564.902344 874.875 558.578125 878.492188 C 552.015625 882.167969 545.746094 886.355469 539.027344 889.746094 C 529.054688 894.632812 518.523438 898.253906 508.441406 902.929688 C 498.386719 907.667969 487.628906 910.570312 477.113281 914.054688 C 458.964844 920.496094 440.074219 924.660156 421.851562 930.84375 C 414.4375 933.390625 407.113281 936.433594 400.632812 940.90625 C 388.128906 949.234375 382.683594 957.089844 366.167969 955.996094 Z M 366.171875 956 " fill-opacity="1" fill-rule="nonzero"/></g><path fill="#010813" d="M 273.707031 933.910156 C 270.902344 932.386719 268.867188 929.8125 267.023438 927.277344 C 263.246094 922.085938 260.582031 916.207031 257.609375 910.546875 C 253.6875 902.394531 248.820312 894.765625 244.648438 886.746094 C 240.625 878.480469 237.105469 869.96875 233.199219 861.640625 C 227.375 849.679688 226.492188 836.136719 224.992188 823.113281 C 224.332031 816.417969 223.609375 809.667969 221.222656 803.332031 C 217.601562 793.496094 212.015625 784.566406 207.609375 775.085938 C 202.390625 764.246094 198.96875 752.59375 194.660156 741.390625 C 191.53125 731.019531 195.113281 726.316406 197.449219 716.84375 C 198.472656 706.820312 197.148438 696.699219 196.792969 686.660156 C 196.46875 672.046875 193.980469 657.675781 191.671875 643.277344 C 190.640625 633.367188 190.75 622.828125 190.078125 612.992188 C 188.128906 590.121094 185.574219 567.300781 183.246094 544.46875 C 181.769531 533.667969 179.832031 522.890625 175.5625 512.824219 C 172.960938 506.304688 168.652344 500.472656 167.222656 493.511719 C 166.984375 492.023438 166.699219 490.519531 167.21875 489.074219 C 167.484375 488.410156 168.054688 487.777344 168.828125 487.753906 C 169.59375 487.625 170.195312 488.332031 170.277344 489.035156 C 170.660156 493.773438 173.558594 497.828125 175.828125 501.859375 C 184.585938 515.75 187.8125 532.175781 189.53125 548.289062 C 191.199219 566.722656 193.304688 585.117188 195.007812 603.550781 C 196.5625 617.421875 195.761719 631.460938 197.515625 645.304688 C 198.546875 652.027344 199.78125 658.734375 200.621094 665.488281 C 201.777344 674.734375 201.992188 684.050781 202.503906 693.339844 C 202.703125 701.6875 203.835938 710.191406 202.410156 718.457031 C 201.546875 722.820312 199.316406 726.917969 198.683594 731.28125 C 197.96875 737.769531 201.121094 743.699219 203.390625 749.570312 C 206.574219 758.355469 209.683594 767.167969 214.070312 775.449219 C 218.035156 783.558594 222.734375 791.351562 225.910156 799.824219 C 229.3125 808.261719 229.851562 817.382812 230.652344 826.347656 C 231.578125 835.082031 232.605469 843.882812 234.992188 852.351562 C 236.882812 857.609375 239.382812 862.625 241.671875 867.722656 C 245.566406 876.542969 249.078125 884.855469 254.027344 892.929688 C 260.070312 902.558594 264.382812 913.175781 270.453125 922.78125 C 271.832031 924.75 273.21875 926.738281 274.972656 928.390625 C 276.175781 929.390625 277.773438 929.925781 278.386719 931.492188 C 279.707031 934.175781 275.539062 935.164062 273.710938 933.902344 Z M 273.707031 933.910156 " fill-opacity="1" fill-rule="nonzero"/><path fill="#010813" d="M 653.316406 672.0625 C 653.886719 682.574219 654.039062 693.117188 654.011719 703.644531 C 653.453125 714.847656 650.640625 725.789062 648.332031 736.734375 C 645.660156 747.789062 643.449219 758.992188 639.519531 769.695312 C 634.964844 781.625 630.324219 793.53125 625.421875 805.324219 C 624.226562 808.175781 623.078125 811.042969 621.933594 813.917969 C 621.039062 813.898438 620.003906 814.464844 619.429688 815.140625 C 610 834.175781 600.578125 840.636719 584.84375 853.6875 C 580.257812 857.542969 575.78125 861.570312 570.785156 864.902344 C 560.710938 871.234375 550.21875 876.894531 540 882.996094 C 527.730469 889.453125 514.457031 893.71875 501.929688 899.640625 C 494.339844 902.882812 486.371094 905.078125 478.554688 907.667969 C 466.84375 911.601562 455.082031 915.363281 443.109375 918.449219 C 425.453125 923.613281 407.035156 928.382812 392.464844 940.175781 C 381.0625 949.105469 377.511719 952.191406 362.316406 950.859375 C 357.367188 950.4375 352.445312 949.816406 347.558594 948.957031 C 339.648438 947.625 331.664062 946.503906 323.996094 944.035156 C 317.21875 941.917969 310.625 939.21875 303.714844 937.550781 C 295.261719 935.511719 286.746094 933.664062 278.347656 931.402344 C 277.707031 929.910156 276.148438 929.367188 274.964844 928.390625 C 273.210938 926.734375 271.824219 924.75 270.445312 922.78125 C 264.378906 913.175781 260.0625 902.558594 254.027344 892.933594 C 249.078125 884.859375 245.566406 876.554688 241.671875 867.726562 C 239.382812 862.636719 236.882812 857.617188 234.992188 852.355469 C 232.597656 843.894531 231.574219 835.085938 230.652344 826.359375 C 229.851562 817.402344 229.3125 808.273438 225.910156 799.835938 C 222.734375 791.363281 218.035156 783.566406 214.070312 775.460938 C 209.683594 767.183594 206.566406 758.371094 203.390625 749.585938 C 201.121094 743.710938 197.972656 737.78125 198.683594 731.296875 C 199.324219 726.929688 201.546875 722.835938 202.410156 718.476562 C 203.835938 710.203125 202.703125 701.699219 202.503906 693.359375 C 201.992188 684.066406 201.777344 674.746094 200.617188 665.507812 C 199.78125 658.753906 198.546875 652.046875 197.515625 645.320312 C 195.761719 631.472656 196.5625 617.441406 195.007812 603.570312 C 193.296875 585.136719 191.199219 566.738281 189.53125 548.304688 C 187.8125 532.191406 184.585938 515.765625 175.828125 501.878906 C 173.558594 497.847656 170.660156 493.785156 170.277344 489.054688 C 170.238281 488.691406 170.054688 488.332031 169.792969 488.085938 C 168.5625 481.785156 167.589844 475.421875 167.199219 469.023438 C 167.144531 464.878906 167.574219 460.738281 167.53125 456.585938 C 167.628906 445.589844 164.242188 432.851562 172.371094 423.820312 C 173.515625 435.828125 173.039062 448.257812 171.894531 460.382812 C 170.320312 470.613281 169.085938 487.023438 182.082031 489.847656 C 191.230469 491.277344 196.851562 482.792969 194.628906 474.417969 C 194.007812 471.621094 193.496094 469.257812 193.359375 466.265625 C 193.359375 462.59375 194.207031 458.984375 194.707031 455.363281 C 197.113281 437.390625 198.117188 419.269531 200.667969 401.3125 C 201.703125 391.871094 202.304688 382.386719 203.242188 372.929688 C 203.546875 370.394531 203.777344 367.683594 204.625 365.195312 C 205.210938 363.277344 206.644531 362.03125 208.367188 361.109375 C 210.207031 359.925781 211.9375 358.578125 213.496094 357.050781 C 214.71875 355.703125 217.648438 352.492188 216.347656 350.625 C 216.417969 350.492188 216.484375 350.363281 216.558594 350.25 C 219.390625 344.796875 221.300781 338.914062 222.570312 332.902344 C 224.648438 324.242188 225.589844 315.378906 224.769531 306.488281 C 224.28125 295.648438 224.203125 284.550781 220.269531 274.269531 C 219.59375 272.328125 218.773438 270.414062 218.335938 268.402344 C 218.527344 267.59375 219.304688 267.0625 219.847656 266.464844 C 225.15625 261.707031 230.855469 258.417969 236.730469 254.054688 C 243.570312 249.183594 248.429688 242.054688 252.300781 234.710938 C 256.332031 226.890625 258.304688 218.246094 260.203125 209.710938 C 261.023438 206.136719 261.960938 202.539062 262.144531 198.867188 C 262.339844 197.542969 262.160156 196.097656 262.191406 194.785156 C 262.046875 188.472656 262.101562 182.148438 261.367188 175.875 C 260.628906 169.699219 258.347656 163.878906 256.660156 157.929688 C 256.539062 156.828125 255.648438 154.894531 257.117188 154.445312 C 259.605469 153.496094 262.167969 152.757812 264.660156 151.820312 C 273.894531 148.859375 281.304688 142.085938 271.257812 134.230469 C 265.5 129.480469 259.308594 125.238281 252.953125 121.339844 C 262.136719 121.847656 270.519531 125.8125 278.398438 130.269531 C 285.414062 134.34375 292 139.671875 300.007812 141.625 C 304.367188 142.503906 308.8125 141.683594 313.21875 141.796875 C 318.761719 141.78125 324.972656 142.9375 330.535156 144.613281 C 341.53125 147.59375 351.609375 153.417969 362.683594 156.078125 C 364.238281 156.308594 365.878906 156.539062 367.261719 155.617188 C 368.4375 154.828125 368.933594 153.0625 368.289062 151.789062 C 366.113281 148.511719 362.882812 145.972656 360.261719 143.039062 C 355.734375 138.304688 350.722656 133.71875 344.390625 131.632812 C 338.320312 129.585938 331.976562 128.125 325.5625 127.820312 C 320.425781 127.382812 314.550781 128.492188 310.441406 124.660156 C 300.949219 117.515625 292.730469 108.867188 283.359375 101.605469 C 279.550781 98.605469 270.664062 93.761719 268.808594 101.09375 C 268.46875 103.28125 269.957031 105.09375 270.921875 106.914062 C 272.050781 109.21875 273.996094 111.796875 273.164062 114.460938 C 272.609375 115.050781 271.632812 114.785156 270.917969 114.863281 C 269.320312 114.816406 267.742188 114.664062 266.15625 114.464844 C 254.265625 112.90625 245.058594 104.347656 234.753906 98.941406 C 229.953125 96.03125 225.199219 92.75 222.015625 87.992188 C 218.21875 82.058594 219.46875 73.917969 225.714844 70.234375 C 232.121094 66.53125 240.445312 65.359375 247.410156 68.121094 C 252.03125 70.308594 255.273438 74.570312 259.496094 77.375 C 270.433594 85.726562 273.175781 77.980469 279.902344 83.410156 C 283.660156 86.367188 286.367188 90.410156 289.703125 93.816406 C 296.242188 100.613281 302.859375 107.492188 310.585938 112.953125 C 313.277344 114.761719 316.207031 116.421875 319.449219 116.953125 C 322.957031 117.597656 325.183594 114.285156 323.179688 111.3125 C 320.371094 107.4375 316.953125 104.015625 313.890625 100.335938 C 307.878906 93.222656 301.914062 85.988281 294.722656 80.015625 C 291.066406 77.074219 287.324219 73.976562 282.695312 72.742188 C 280.539062 72.0625 278.207031 71.863281 276.207031 70.75 C 275.25 70.1875 274.207031 69.289062 273.355469 68.507812 C 270.8125 66.078125 271.867188 65.121094 274.664062 64.027344 C 278.625 62.644531 282.960938 60.894531 287.191406 61.882812 C 289.609375 62.589844 290.863281 65 292.398438 66.796875 C 295.164062 70.339844 297.6875 74.0625 300.148438 77.816406 C 306.257812 86.957031 313.199219 95.605469 321.28125 103.089844 C 325.75 107.367188 330.824219 110.941406 335.296875 115.210938 C 341.582031 121.761719 346.773438 129.367188 353.832031 135.164062 C 359.652344 140.203125 366.304688 144.113281 372.421875 148.746094 C 376.484375 152 380.238281 155.589844 383.992188 159.195312 C 389.367188 164.460938 395.355469 169.167969 400.042969 175.097656 C 402.960938 179.1875 405.574219 183.492188 408.425781 187.625 C 411.179688 191.601562 414.222656 195.386719 416.65625 199.578125 C 419.261719 204.160156 421.554688 208.902344 424.027344 213.546875 C 428.390625 221.785156 433.355469 229.703125 437.269531 238.167969 C 439.023438 241.976562 439.34375 246.164062 438.707031 250.28125 C 438.179688 254.410156 436.644531 258.429688 436.824219 262.621094 C 437.070312 266.585938 440.332031 269.796875 443.960938 270.992188 C 446.625 271.761719 449.78125 271.457031 452.117188 269.929688 C 453.015625 269.339844 453.699219 268.46875 454.710938 268.058594 C 458.390625 270.867188 462.605469 274.046875 466.117188 277.347656 C 470.304688 281.710938 473.902344 286.59375 477.742188 291.261719 C 485.277344 300.246094 492.972656 309.160156 498.582031 319.535156 C 504.972656 330.460938 512.9375 341.375 514.667969 354.191406 C 514.46875 354.648438 514.28125 355.113281 513.851562 355.613281 C 513.839844 355.558594 513.785156 355.601562 513.738281 355.648438 C 512.160156 352.414062 508.6875 348.976562 504.820312 350.449219 C 502.210938 351.539062 500.476562 353.980469 498.4375 355.859375 C 495.90625 358.476562 492.96875 360.757812 491.039062 363.886719 C 484.207031 376.589844 502.46875 379.132812 511.207031 379.546875 C 515.425781 379.65625 520.167969 381.203125 524.074219 379.035156 C 525.550781 378.070312 526.617188 376.546875 526.800781 374.757812 C 527.195312 370.148438 530.265625 357.15625 534.441406 367.609375 C 537.136719 375.171875 537.882812 383.28125 540.558594 390.859375 C 542.65625 397.46875 544.777344 404.089844 547.621094 410.429688 C 549.273438 415.003906 549.988281 419.871094 550.75 424.65625 C 550.984375 426.96875 551.34375 429.511719 549.632812 431.382812 C 547.574219 433.996094 544.691406 436.503906 543.53125 439.804688 C 541.957031 444.46875 543.679688 449.554688 545.785156 453.785156 C 553.417969 467.914062 558.625 469.320312 570.988281 477.609375 C 574.375 480.539062 575.917969 484.96875 577.890625 488.867188 C 580.09375 493.675781 582.222656 498.527344 583.945312 503.535156 C 586.011719 509.210938 588.207031 515.0625 592.363281 519.582031 C 594.703125 521.949219 597.484375 523.847656 600.003906 526.023438 C 603.667969 529.03125 607.15625 532.296875 611.152344 534.867188 C 613.441406 536.351562 616.050781 537.53125 617.796875 539.6875 C 619.925781 542.238281 616.039062 544.59375 614.59375 546.433594 C 612.773438 548.28125 610.960938 550.371094 610.640625 553.046875 C 610.042969 556.210938 612.171875 558.917969 613.917969 561.320312 C 616.398438 564.628906 618.996094 567.914062 622.050781 570.714844 C 622.921875 571.457031 623.8125 572.132812 624.824219 572.667969 C 626.222656 573.589844 628.691406 572.757812 629.023438 574.910156 C 629.546875 578.941406 629.355469 583.070312 628.367188 587.023438 C 627.203125 591.679688 625.742188 596.441406 626.347656 601.289062 C 626.957031 608.128906 635.074219 610.261719 640.402344 607.195312 C 642.117188 606.203125 643.210938 604.5625 644.28125 602.941406 L 644.613281 602.554688 C 644.734375 602.441406 644.859375 602.328125 645 602.238281 C 649.234375 610.871094 650.367188 620.828125 650.667969 630.351562 C 650.875 634.992188 649.921875 639.855469 650.085938 644.585938 C 650.890625 653.769531 652.734375 662.851562 653.308594 672.058594 Z M 653.316406 672.0625 " fill-opacity="1" fill-rule="nonzero"/><path fill="#010813" d="M 210.5625 246.851562 C 210.550781 247.980469 210.085938 249.105469 209.753906 250.171875 C 209.222656 250.460938 208.644531 250.683594 208.054688 250.777344 C 201.671875 250.933594 195.980469 247.359375 190.230469 245.058594 C 183.445312 241.851562 175.804688 239.832031 170.0625 234.820312 C 177.679688 233.066406 186.421875 229.988281 193.917969 233.625 C 197.238281 236.164062 210.089844 243.242188 210.5625 246.851562 Z M 210.5625 246.851562 " fill-opacity="1" fill-rule="nonzero"/><path fill="#010813" d="M 165.964844 136.34375 C 169.164062 137.6875 170.609375 138.953125 169.289062 142.558594 C 168.941406 142.414062 168.585938 142.296875 168.230469 142.171875 C 167.394531 141.875 166.550781 141.574219 165.707031 141.285156 C 162.941406 140.183594 159.6875 139.527344 157.578125 137.292969 C 156.449219 135.332031 155.328125 133.035156 155.328125 130.722656 C 155.328125 130.375 155.359375 130.023438 155.414062 129.679688 C 159.058594 131.707031 162.296875 134.375 165.964844 136.34375 Z M 165.964844 136.34375 " fill-opacity="1" fill-rule="nonzero"/><path fill="#010813" d="M 198.261719 118.269531 C 198.949219 120.503906 198.703125 122.792969 198.472656 125.226562 C 195.09375 123.914062 191.988281 122.105469 189.144531 119.78125 C 189.488281 118.796875 190.015625 117.742188 190.871094 117.117188 C 192.375 118.320312 194.371094 119.359375 196.316406 118.628906 C 196.945312 118.40625 197.589844 118.175781 198.261719 118.269531 Z M 198.261719 118.269531 " fill-opacity="1" fill-rule="nonzero"/><path fill="#010813" d="M 218.226562 106.976562 C 219.316406 108.035156 220.632812 108.832031 221.691406 109.929688 C 220.039062 109.511719 218.378906 109.125 216.683594 108.898438 C 214.570312 108.597656 212.375 108.902344 210.496094 109.914062 C 208.242188 109.398438 207.121094 106.410156 205.613281 104.804688 C 204.542969 103.359375 203.234375 102.136719 201.949219 100.894531 C 201.121094 99.9375 201.101562 98.59375 201.101562 97.394531 C 201.199219 94.871094 201.542969 92.363281 201.777344 89.855469 C 202.257812 87.644531 201.703125 81.417969 203.9375 80.546875 C 204.820312 81.445312 204.953125 82.824219 205.167969 84.003906 C 205.578125 86.757812 205.519531 90.175781 204.691406 92.996094 C 204.199219 96.25 206.730469 99.214844 209.542969 100.503906 C 211.078125 101.300781 212.941406 101.359375 214.351562 102.394531 C 215.925781 103.671875 216.796875 105.554688 218.226562 106.976562 Z M 218.226562 106.976562 " fill-opacity="1" fill-rule="nonzero"/><path fill="#010813" d="M 181.28125 98.128906 C 182.324219 99.640625 181.957031 101.789062 180.605469 103 C 178.367188 101.933594 179.921875 99.269531 181.28125 98.128906 Z M 181.28125 98.128906 " fill-opacity="1" fill-rule="nonzero"/><path fill="#010813" d="M 179.621094 114.929688 C 180.101562 115.628906 179.910156 116.628906 179.855469 117.429688 C 179.191406 116.726562 178.96875 115.726562 179.621094 114.929688 Z M 179.621094 114.929688 " fill-opacity="1" fill-rule="nonzero"/></svg>